<?xml version="1.0" encoding="UTF-8"?>
<svg id="Layer_1" xmlns="http://www.w3.org/2000/svg" width="600" height="600" xmlns:xlink="http://www.w3.org/1999/xlink" version="1.1" viewBox="0 0 600 600">
  <!-- Generator: Adobe Illustrator 29.8.1, SVG Export Plug-In . SVG Version: 2.1.1 Build 2)  -->
  <defs>
    <style>
      .st0 {
        fill: #090909;
      }

      .st0, .st1, .st2, .st3, .st4 {
        stroke-linejoin: round;
        stroke-width: 16px;
      }

      .st0, .st1, .st3 {
        stroke: #090909;
      }

      .st5 {
        fill: url(#radial-gradient);
      }

      .st1, .st2, .st6 {
        fill: #fff;
      }

      .st7 {
        fill: #ffabd0;
      }

      .st2 {
        stroke: #fff;
      }

      .st3 {
        fill: none;
        stroke-linecap: square;
      }

      .st4 {
        stroke: #000;
      }

      .st8 {
        fill: url(#radial-gradient1);
      }

      .st9 {
        display: none;
      }
    </style>
    <radialGradient id="radial-gradient" cx="561.34" cy="237.52" fx="787.37" fy="237.52" r="263.28" gradientTransform="translate(-277.8 -216.25) rotate(-3.17) scale(1 2.33)" gradientUnits="userSpaceOnUse">
      <stop offset=".05" stop-color="#582a86"/>
      <stop offset=".28" stop-color="#45398b"/>
      <stop offset=".74" stop-color="#166298"/>
      <stop offset=".92" stop-color="#02759f"/>
    </radialGradient>
    <radialGradient id="radial-gradient1" cx="317.08" cy="306.74" fx="670.27" fy="306.74" r="411.4" gradientTransform="translate(190.44 -110.25) rotate(29.94)" gradientUnits="userSpaceOnUse">
      <stop offset=".1" stop-color="#0090ff"/>
      <stop offset=".88" stop-color="#582a86"/>
    </radialGradient>
  </defs>
  <g>
    <path class="st6" d="M165.72,539.02L31.34,306.89,165.21,74.45l268.24-.32,134.34,232.17-133.87,232.44-268.21.27ZM59.21,306.84l120.4,208.04,240.37-.27,119.97-208.31-120.4-208.04-240.37.27-119.97,208.31Z"/>
    <polygon class="st5" points="539.96 306.31 419.99 514.62 179.61 514.89 59.21 306.84 179.18 98.53 419.55 98.27 539.96 306.31"/>
    <path class="st8" d="M447.21,50.47l-295.52.3L4.43,306.47l147.37,256.12,295.71-.87,147.55-255.6L447.21,50.47ZM433.93,538.75l-268.21.27L31.37,306.84,165.21,74.45l268.24-.32,134.34,232.17-133.87,232.44h0Z"/>
    <g>
      <path class="st6" d="M212.7,271.21l.1.06.09-.15c-.06.1-.11.07-.19.09Z"/>
      <path class="st6" d="M212.86,271.16l-.09.15-.1-.06c.11-.07.16-.04.19-.09Z"/>
    </g>
    <path class="st6" d="M427.78,282.64c-4.98-3.97-11.49-5.47-17.7-4.05-16.99,3.84-33.88-6.83-37.72-23.82-.49-2.17-.75-4.38-.77-6.6-.05-11.51-9.36-20.82-20.87-20.87-17.42-.19-31.39-14.47-31.2-31.89.03-2.23.29-4.44.77-6.61,2.54-11.34-4.59-22.61-15.94-25.14-1.48-.33-3-.51-4.52-.51h-.85c-75.51.01-136.72,61.24-136.71,136.76.01,75.51,61.24,136.72,136.76,136.71s136.72-61.24,136.71-136.76v-.82h0c-.02-6.39-2.96-12.42-7.96-16.39h0ZM380.75,381.76c-44.49,44.41-117.33,44.9-162.37,1.09-45.82-44.52-46.88-117.76-2.35-163.59,21.79-22.42,51.72-35.07,82.99-35.07h.76c-6.37,28.39,11.48,56.56,39.87,62.93,3.58.81,7.24,1.23,10.91,1.28.32,29.04,24.12,52.33,53.16,52.01,3.7-.04,7.38-.47,10.99-1.28v.05c.29,30.99-11.96,60.77-33.96,82.59h0ZM346.98,346.56c6.16,6.16,6.16,16.15,0,22.31-6.16,6.16-16.15,6.16-22.31,0-6.16-6.16-6.16-16.15,0-22.31h0c6.16-6.16,16.15-6.16,22.31,0ZM262.84,336.04c6.16,6.16,6.16,16.15,0,22.31s-16.15,6.16-22.31,0c-6.16-6.16-6.16-16.15,0-22.31h0c6.16-6.16,16.15-6.16,22.31,0ZM230.01,284.73c-6.16-6.16-6.16-16.15,0-22.31s16.15-6.16,22.31,0,6.16,16.15,0,22.31h0c-6.16,6.16-16.15,6.16-22.31,0ZM320.69,305.77c-6.16,6.16-16.15,6.16-22.31,0s-6.16-16.15,0-22.31,16.15-6.16,22.31,0c6.16,6.16,6.16,16.15,0,22.31Z"/>
  </g>
  <g id="Layer_11" class="st9">
    <rect class="st7" y="0" width="600" height="600" rx="50" ry="50"/>
    <polygon class="st4" points="428.4 491.4 168.8 491.4 193.6 207.1 253.3 149.7 458.2 149.7 428.4 491.4"/>
    <polygon class="st1" points="396.6 460.1 140.9 460.1 165.2 182.8 245.8 108.6 427.4 108.6 396.6 460.1"/>
    <polygon class="st0" points="367.2 261.1 200.9 261.1 210.4 153.1 376.6 153.1 367.2 261.1"/>
    <line class="st3" x1="192.4" y1="358.4" x2="358.7" y2="358.4"/>
    <line class="st3" x1="188.7" y1="400.5" x2="274" y2="400.5"/>
    <line class="st3" x1="196.1" y1="316.3" x2="362.4" y2="316.3"/>
    <polyline class="st2" points="261.5 125.9 255 200.1 180.8 200.1"/>
    <polyline class="st0" points="245.8 108.6 239.4 182.8 165.2 182.8"/>
  </g>
</svg>